<svg width="522" height="522" viewBox="0 0 522 522" fill="none" xmlns="http://www.w3.org/2000/svg">
<g filter="url(#filter0_d_1_5)">
<path d="M517 257C517 398.385 402.385 513 261 513C119.615 513 5 398.385 5 257C5 115.615 119.615 1 261 1C402.385 1 517 115.615 517 257Z" fill="white"/>
<path d="M168.837 303L186.757 213.4H230.021C239.749 213.4 247.173 215.149 252.293 218.648C257.498 222.147 260.101 227.224 260.101 233.88C260.101 239.512 258.608 244.248 255.621 248.088C252.72 251.928 248.837 254.829 243.973 256.792C239.109 258.755 233.818 259.736 228.101 259.736L231.429 254.616C238.938 254.616 244.912 256.365 249.349 259.864C253.872 263.277 256.133 268.227 256.133 274.712C256.133 281.027 254.384 286.317 250.885 290.584C247.472 294.765 242.736 297.88 236.677 299.928C230.618 301.976 223.664 303 215.813 303H168.837ZM192.645 287.384H217.093C222.81 287.384 227.29 286.317 230.533 284.184C233.861 281.965 235.525 278.723 235.525 274.456C235.525 271.128 234.288 268.781 231.813 267.416C229.424 265.965 226.181 265.24 222.085 265.24H194.693L197.765 250.136H221.061C224.645 250.136 227.717 249.667 230.277 248.728C232.922 247.789 234.928 246.381 236.293 244.504C237.658 242.541 238.341 240.195 238.341 237.464C238.341 234.477 237.189 232.344 234.885 231.064C232.581 229.699 229.338 229.016 225.157 229.016H204.165L192.645 287.384Z" fill="black"/>
<path d="M313.816 304.536C304.685 304.536 296.792 302.915 290.136 299.672C283.565 296.344 278.488 291.779 274.904 285.976C271.32 280.088 269.528 273.304 269.528 265.624C269.528 258.029 270.851 250.947 273.496 244.376C276.227 237.805 280.024 232.131 284.888 227.352C289.837 222.488 295.683 218.691 302.424 215.96C309.251 213.229 316.845 211.864 325.208 211.864C333.229 211.864 340.312 213.229 346.456 215.96C352.6 218.691 357.251 222.616 360.408 227.736L345.432 240.024C343.128 236.611 340.184 234.008 336.6 232.216C333.016 230.424 328.749 229.528 323.8 229.528C318.765 229.528 314.2 230.424 310.104 232.216C306.008 233.923 302.467 236.397 299.48 239.64C296.579 242.797 294.36 246.509 292.824 250.776C291.288 255.043 290.52 259.565 290.52 264.344C290.52 268.867 291.501 272.835 293.464 276.248C295.427 279.576 298.285 282.179 302.04 284.056C305.795 285.933 310.317 286.872 315.608 286.872C320.216 286.872 324.525 286.061 328.536 284.44C332.547 282.733 336.173 280.088 339.416 276.504L351.704 289.048C347.011 294.509 341.421 298.477 334.936 300.952C328.536 303.341 321.496 304.536 313.816 304.536Z" fill="black"/>
<path d="M261 0.5C402.661 0.5 517.5 115.339 517.5 257C517.5 398.661 402.661 513.5 261 513.5C119.339 513.5 4.5 398.661 4.5 257C4.5 115.339 119.339 0.5 261 0.5Z" stroke="black"/>
</g>
<defs>
<filter id="filter0_d_1_5" x="0" y="0" width="522" height="522" filterUnits="userSpaceOnUse" color-interpolation-filters="sRGB">
<feFlood flood-opacity="0" result="BackgroundImageFix"/>
<feColorMatrix in="SourceAlpha" type="matrix" values="0 0 0 0 0 0 0 0 0 0 0 0 0 0 0 0 0 0 127 0" result="hardAlpha"/>
<feOffset dy="4"/>
<feGaussianBlur stdDeviation="2"/>
<feComposite in2="hardAlpha" operator="out"/>
<feColorMatrix type="matrix" values="0 0 0 0 0 0 0 0 0 0 0 0 0 0 0 0 0 0 0.5 0"/>
<feBlend mode="normal" in2="BackgroundImageFix" result="effect1_dropShadow_1_5"/>
<feBlend mode="normal" in="SourceGraphic" in2="effect1_dropShadow_1_5" result="shape"/>
</filter>
</defs>
</svg>
